<?xml version="1.0" encoding="UTF-8" standalone="no"?>
<svg
   id="Layer_1"
   data-name="Layer 1"
   viewBox="0 0 800 800"
   version="1.1"
   sodipodi:docname="logo2.svg"
   inkscape:version="1.4.2 (ebf0e940, 2025-05-08)"
   inkscape:export-filename="logo2.png"
   inkscape:export-xdpi="300"
   inkscape:export-ydpi="300"
   xmlns:inkscape="http://www.inkscape.org/namespaces/inkscape"
   xmlns:sodipodi="http://sodipodi.sourceforge.net/DTD/sodipodi-0.dtd"
   xmlns="http://www.w3.org/2000/svg"
   xmlns:svg="http://www.w3.org/2000/svg">
  <defs
     id="defs18" />
  <sodipodi:namedview
     id="namedview18"
     pagecolor="#ffffff"
     bordercolor="#666666"
     borderopacity="1.0"
     inkscape:showpageshadow="2"
     inkscape:pageopacity="0.0"
     inkscape:pagecheckerboard="0"
     inkscape:deskcolor="#d1d1d1"
     inkscape:zoom="0.75625"
     inkscape:cx="400"
     inkscape:cy="400"
     inkscape:window-width="1072"
     inkscape:window-height="846"
     inkscape:window-x="128"
     inkscape:window-y="152"
     inkscape:window-maximized="0"
     inkscape:current-layer="Layer_1" />
  <g
     id="g4"
     transform="rotate(-90,400.00144,400)">
    <path
       d="m 691.92,310.19 -6.27,3.39 c -13.02,7.06 -29.28,2.22 -36.34,-10.81 L 624.8,257.48 c -1.55,-2.89 -4.57,-4.68 -7.86,-4.68 h -5.52 v -60.74 h 31.07 c 9.84,0 18.88,5.39 23.56,14.04 l 36.68,67.76 c 7.06,13.01 2.22,29.26 -10.81,36.32 z"
       fill="#28223b"
       stroke-width="0"
       id="path1" />
    <rect
       x="422.64001"
       y="192.07001"
       width="128.03999"
       height="60.740002"
       fill="#28223b"
       stroke-width="0"
       id="rect1" />
    <rect
       x="248.81"
       y="192.07001"
       width="113.08"
       height="60.740002"
       fill="#28223b"
       stroke-width="0"
       id="rect2" />
    <path
       d="m 188.07,192.07 v 60.74 h -8.54 c -3.29,0 -6.31,1.79 -7.86,4.68 l -20.49,37.84 c -4.73,8.75 -13.61,13.81 -22.9,14.02 q 0,0 -0.04,0 c -0.57,-0.04 -1.13,-0.04 -1.7,-0.02 -3.97,-0.14 -7.95,-1.18 -11.68,-3.2 l -6.29,-3.39 C 95.56,295.68 90.72,279.43 97.76,266.4 l 32.66,-60.29 c 4.68,-8.65 13.72,-14.04 23.56,-14.04 z"
       fill="#28223b"
       stroke-width="0"
       id="path2" />
    <rect
       x="188.07001"
       y="192.07001"
       width="60.740002"
       height="60.740002"
       fill="#28223b"
       stroke-width="0"
       id="rect3" />
    <rect
       x="550.67999"
       y="192.07001"
       width="60.740002"
       height="60.740002"
       fill="#28223b"
       stroke-width="0"
       id="rect4" />
  </g>
  <g
     id="g8"
     transform="rotate(-90,400.00144,400)">
    <path
       d="m 702.22,533.63 -36.68,67.74 c -4.68,8.66 -13.74,14.04 -23.56,14.04 h -30.57 v -60.74 h 5.02 c 3.27,0 6.29,-1.79 7.86,-4.68 L 648.8,504.7 c 4.84,-8.95 14.06,-14.04 23.58,-14.04 h 0.02 c 4.31,0 8.66,1.04 12.72,3.23 l 6.29,3.41 c 13.02,7.04 17.85,23.3 10.81,36.32 z"
       fill="#28223b"
       stroke-width="0"
       id="path4" />
    <rect
       x="422.64001"
       y="554.66998"
       width="128.03999"
       height="60.740002"
       fill="#28223b"
       stroke-width="0"
       id="rect5" />
    <rect
       x="248.81"
       y="554.66998"
       width="113.08"
       height="60.740002"
       fill="#28223b"
       stroke-width="0"
       id="rect6" />
    <path
       d="m 188.07,554.67 v 60.74 h -34.59 c -9.84,0 -18.88,-5.38 -23.58,-14.04 L 97.26,541.08 c -7.04,-13.02 -2.2,-29.28 10.81,-36.32 l 6.29,-3.41 c 13.01,-7.04 29.28,-2.2 36.32,10.81 L 171.17,550 c 1.55,2.89 4.57,4.68 7.84,4.68 h 9.06 z"
       fill="#28223b"
       stroke-width="0"
       id="path6" />
    <rect
       x="188.07001"
       y="554.66998"
       width="60.740002"
       height="60.740002"
       fill="#28223b"
       stroke-width="0"
       id="rect7" />
    <rect
       x="550.67999"
       y="554.66998"
       width="60.740002"
       height="60.740002"
       fill="#28223b"
       stroke-width="0"
       id="rect8" />
  </g>
  <g
     id="g11"
     transform="rotate(-90,400.00144,400)">
    <path
       d="m 188.07,365.9 v 60.74 h -34.6 c -9.83,0 -18.88,-5.4 -23.56,-14.04 L 97.27,352.31 c -7.04,-13.02 -2.22,-29.28 10.81,-36.34 l 6.29,-3.39 c 3.88,-2.11 8.06,-3.16 12.18,-3.23 0.57,0.04 1.13,0.04 1.7,0.02 q 0,0 0.04,0 c 9.09,0.39 17.76,5.43 22.4,14.02 l 20.47,37.84 c 1.57,2.88 4.59,4.68 7.86,4.68 h 9.06 z"
       fill="#28223b"
       stroke-width="0"
       id="path8" />
    <rect
       x="248.81"
       y="365.89999"
       width="113.08"
       height="60.740002"
       fill="#28223b"
       stroke-width="0"
       id="rect9" />
    <rect
       x="422.64001"
       y="365.89999"
       width="128.03999"
       height="60.740002"
       fill="#28223b"
       stroke-width="0"
       id="rect10" />
    <rect
       x="361.89999"
       y="365.89999"
       width="60.740002"
       height="60.740002"
       fill="#28223b"
       stroke-width="0"
       id="rect11" />
    <path
       d="m 691.42,484.02 -6.29,3.39 c -4.06,2.2 -8.41,3.25 -12.72,3.25 h -0.02 c -9.52,0 -18.74,-5.09 -23.58,-14.06 l -24.53,-45.29 c -1.55,-2.88 -4.57,-4.68 -7.84,-4.68 h -5.02 v -60.74 h 30.55 c 9.84,0 18.88,5.4 23.58,14.04 l 36.68,67.76 c 7.04,13.01 2.2,29.28 -10.81,36.32 z"
       fill="#28223b"
       stroke-width="0"
       id="path11" />
  </g>
  <g
     id="g13"
     transform="rotate(-90,400.00144,400)">
    <rect
       x="188.07001"
       y="365.89999"
       width="60.740002"
       height="60.740002"
       fill="#28223b"
       stroke-width="0"
       id="rect12" />
    <path
       d="M 248.81,365.9 H 188.07 V 157.52 c 0,-9.84 5.4,-18.88 14.04,-23.58 l 67.74,-36.68 c 13.02,-7.04 29.28,-2.2 36.34,10.81 l 3.39,6.29 c 7.04,13.02 2.22,29.28 -10.81,36.32 l -45.29,24.53 c -2.89,1.55 -4.68,4.57 -4.68,7.84 V 365.9 Z"
       fill="#5c459b"
       stroke-width="0"
       id="path12" />
    <path
       d="m 305.36,671.76 c 0.02,0.57 0.02,1.13 -0.02,1.7 -0.14,3.97 -1.18,7.95 -3.2,11.67 l -3.41,6.29 c -7.04,13.02 -23.3,17.86 -36.32,10.81 l -60.29,-32.64 c -8.65,-4.68 -14.04,-13.74 -14.04,-23.56 V 426.65 h 60.74 v 193.83 c 0,3.27 1.79,6.29 4.68,7.86 l 37.84,20.47 c 8.75,4.75 13.81,13.67 14.02,22.96 z"
       fill="#5c459b"
       stroke-width="0"
       id="path13" />
  </g>
  <g
     id="g15"
     transform="rotate(-90,400.00144,400)">
    <rect
       x="550.67999"
       y="365.89999"
       width="60.740002"
       height="60.740002"
       fill="#28223b"
       stroke-width="0"
       id="rect13" />
    <path
       d="M 611.42,158.02 V 365.9 H 550.68 V 183.57 c 0,-3.29 -1.79,-6.31 -4.68,-7.86 L 500.71,151.2 c -8.95,-4.86 -14.04,-14.08 -14.04,-23.6 0,-4.31 1.04,-8.68 3.23,-12.74 l 3.39,-6.27 c 7.06,-13.02 23.31,-17.86 36.34,-10.81 l 67.74,36.68 c 8.66,4.68 14.04,13.72 14.04,23.56 z"
       fill="#8f8bc3"
       stroke-width="0"
       id="path14" />
    <path
       d="m 611.42,426.64 v 219.88 c 0,9.84 -5.38,18.88 -14.04,23.56 l -60.29,32.66 c -13.02,7.04 -29.28,2.2 -36.32,-10.81 l -3.41,-6.29 c -7.04,-13.02 -2.2,-29.28 10.81,-36.32 l 37.84,-20.49 c 2.89,-1.55 4.68,-4.57 4.68,-7.86 V 426.64 h 60.74 z"
       fill="#8f8bc3"
       stroke-width="0"
       id="path15" />
  </g>
  <g
     id="g18"
     transform="rotate(-90,400.00144,400)">
    <rect
       x="361.89999"
       y="192.07001"
       width="60.740002"
       height="60.740002"
       fill="#262337"
       stroke-width="0"
       id="rect15" />
    <rect
       x="361.89999"
       y="554.66998"
       width="60.740002"
       height="60.740002"
       fill="#28223b"
       stroke-width="0"
       id="rect16" />
    <rect
       x="361.89999"
       y="252.81"
       width="60.740002"
       height="301.85999"
       fill="#7963ab"
       stroke-width="0"
       id="rect17" />
    <path
       d="m 361.9,615.41 h 60.74 v 31.1 c 0,9.83 -5.4,18.88 -14.04,23.56 l -60.29,32.64 c -13.02,7.04 -29.28,2.22 -36.34,-10.81 l -3.39,-6.29 c -2.11,-3.88 -3.16,-8.04 -3.23,-12.17 0.04,-0.57 0.04,-1.13 0.02,-1.7 0.38,-9.11 5.41,-17.81 14.02,-22.46 l 37.84,-20.47 c 2.88,-1.57 4.68,-4.59 4.68,-7.86 v -5.56 z"
       fill="#7963ab"
       stroke-width="0"
       id="path17" />
    <path
       d="m 486.67,127.6 c 0,9.52 -5.09,18.74 -14.06,23.58 l -45.29,24.53 c -2.88,1.55 -4.68,4.57 -4.68,7.84 v 8.52 H 361.9 v -34.05 c 0,-9.84 5.4,-18.88 14.04,-23.58 L 443.7,97.76 c 13.01,-7.04 29.28,-2.2 36.32,10.81 l 3.39,6.29 c 2.2,4.06 3.25,8.43 3.25,12.74 z"
       fill="#7963ab"
       stroke-width="0"
       id="path18" />
  </g>
</svg>
